<svg width="34" height="34" viewBox="0 0 34 34" fill="none" xmlns="http://www.w3.org/2000/svg">
<path d="M17.0002 25.5L10.5295 16.3625C9.47041 15.112 8.78835 13.5864 8.56279 11.9632C8.33723 10.3401 8.57746 8.68624 9.25549 7.19435C9.93352 5.70246 11.0215 4.4339 12.3926 3.53641C13.7637 2.63893 15.3616 2.14946 17.0002 2.125C19.2715 2.14745 21.4414 3.06913 23.0346 4.68819C24.6277 6.30725 25.5143 8.49171 25.5002 10.7631C25.501 12.7446 24.8264 14.6672 23.5877 16.2137L17.0002 25.5ZM17.0002 4.25C15.2915 4.26962 13.6605 4.96653 12.4652 6.18769C11.2699 7.40885 10.6081 9.05444 10.6252 10.7631C10.6323 12.3227 11.1934 13.829 12.2083 15.0131L17.0002 21.8025L21.9195 14.875C22.8546 13.7078 23.3676 12.2587 23.3752 10.7631C23.3922 9.05444 22.7304 7.40885 21.5351 6.18769C20.3398 4.96653 18.7088 4.26962 17.0002 4.25Z" fill="white"/>
<path d="M17 11.6875C18.1736 11.6875 19.125 10.7361 19.125 9.5625C19.125 8.38889 18.1736 7.4375 17 7.4375C15.8264 7.4375 14.875 8.38889 14.875 9.5625C14.875 10.7361 15.8264 11.6875 17 11.6875Z" fill="white"/>
<path d="M29.75 12.75H27.625V14.875H29.75V29.75H4.25V14.875H6.375V12.75H4.25C3.68641 12.75 3.14591 12.9739 2.7474 13.3724C2.34888 13.7709 2.125 14.3114 2.125 14.875V29.75C2.125 30.3136 2.34888 30.8541 2.7474 31.2526C3.14591 31.6511 3.68641 31.875 4.25 31.875H29.75C30.3136 31.875 30.8541 31.6511 31.2526 31.2526C31.6511 30.8541 31.875 30.3136 31.875 29.75V14.875C31.875 14.3114 31.6511 13.7709 31.2526 13.3724C30.8541 12.9739 30.3136 12.75 29.75 12.75Z" fill="white"/>
</svg>
