<svg width="54" height="54" viewBox="0 0 54 54" fill="none" xmlns="http://www.w3.org/2000/svg">
<path d="M52.8083 25.8027C52.813 25.8027 52.8165 25.8027 52.8213 25.8027C53.1501 25.8027 53.4637 25.6648 53.6865 25.4231C53.9128 25.1779 54.0248 24.849 53.9953 24.5166C52.8118 11.4993 42.5057 1.18966 29.4872 0.00379876C29.1572 -0.0221345 28.8247 0.085135 28.5796 0.31264C28.3344 0.538967 28.1976 0.858418 28.2012 1.19201C28.4063 18.4919 30.6884 25.561 52.8083 25.8027ZM52.8083 28.1933C30.6884 28.4349 28.4075 35.5041 28.2023 52.8039C28.1988 53.1375 28.3355 53.457 28.5807 53.6833C28.8 53.8849 29.0864 53.9968 29.3811 53.9968C29.4165 53.9968 29.453 53.9957 29.4884 53.9921C42.5069 52.8063 52.813 42.4978 53.9953 29.4793C54.0248 29.1469 53.914 28.818 53.6865 28.5728C53.459 28.3276 53.1419 28.2062 52.8083 28.1933ZM24.4338 0.00969282C11.4565 1.22973 1.18342 11.537 0.00581444 24.519C-0.0236552 24.8514 0.0871507 25.1803 0.314656 25.4255C0.537446 25.6671 0.852182 25.8039 1.17988 25.8039C1.1846 25.8039 1.18931 25.8039 1.19403 25.8039C23.2408 25.5504 25.5171 18.4848 25.7245 1.19673C25.7281 0.863133 25.5902 0.542503 25.345 0.316177C25.0974 0.0898502 24.7662 -0.0209556 24.4338 0.00969282ZM1.19285 28.1921C0.826249 28.1508 0.538625 28.3253 0.313477 28.5705C0.0871508 28.8157 -0.0248339 29.1445 0.00463574 29.477C1.18224 42.4589 11.4565 52.7662 24.4338 53.9862C24.4703 53.9898 24.508 53.991 24.5446 53.991C24.8393 53.991 25.1245 53.8801 25.3438 53.6786C25.589 53.4522 25.7269 53.1316 25.7234 52.798C25.5159 35.5111 23.2408 28.4455 1.19285 28.1921Z" fill="white"/>
</svg>
