<svg width="36" height="35" viewBox="0 0 36 35" fill="none" xmlns="http://www.w3.org/2000/svg">
<path d="M17.5559 5.89065L18.4141 7.33119L19.2736 5.89136C20.707 3.49001 22.407 2.10029 24.0915 1.4605C25.7725 0.822081 27.5148 0.899815 29.1102 1.56573C32.3133 2.90273 35 6.67158 35 11.86C35 13.6633 34.1197 15.8509 32.621 18.2308C31.1386 20.585 29.13 23.0053 27.0478 25.247C24.9694 27.4846 22.8393 29.5211 21.1272 31.1096C20.5121 31.6801 19.9543 32.1899 19.4703 32.6322C19.2795 32.8065 19.1002 32.9704 18.9334 33.1233C18.7451 33.296 18.5684 33.4587 18.4079 33.6083C18.2376 33.4544 18.0498 33.2875 17.8502 33.1111C17.6089 32.8979 17.345 32.6662 17.0593 32.4154C16.6121 32.0229 16.1116 31.5835 15.5613 31.0949C13.7708 29.5053 11.5369 27.468 9.35435 25.2295C7.16776 22.9868 5.05641 20.5658 3.49772 18.2116C1.92034 15.8292 1 13.6488 1 11.86C1 6.66631 3.86355 2.88485 7.28878 1.54227C8.99849 0.872117 10.8568 0.801354 12.6228 1.4521C14.3875 2.1024 16.1318 3.50049 17.5559 5.89065Z" stroke="url(#paint0_linear_164_100)" stroke-width="2"/>
<defs>
<linearGradient id="paint0_linear_164_100" x1="18" y1="0" x2="18" y2="35" gradientUnits="userSpaceOnUse">
<stop stop-color="#F3C36D"/>
<stop offset="1" stop-color="#F3843E"/>
</linearGradient>
</defs>
</svg>
