<svg width="21" height="22" viewBox="0 0 21 22" fill="none" xmlns="http://www.w3.org/2000/svg">
<path d="M20.9214 20.4187L14.1144 13.2769C15.1707 11.8442 15.7421 10.0925 15.7421 8.24996C15.7421 6.04447 14.9217 3.97648 13.4382 2.41724C11.9547 0.857996 9.97836 0 7.87887 0C5.77939 0 3.80309 0.860746 2.31956 2.41724C0.833403 3.97373 0.015625 6.04447 0.015625 8.24996C0.015625 10.4527 0.836024 12.5262 2.31956 14.0827C3.80309 15.6419 5.77676 16.4999 7.87887 16.4999C9.635 16.4999 11.302 15.9004 12.6676 14.7949L19.4745 21.9339C19.4945 21.9549 19.5182 21.9715 19.5443 21.9828C19.5704 21.9942 19.5983 22 19.6266 22C19.6548 22 19.6828 21.9942 19.7088 21.9828C19.7349 21.9715 19.7586 21.9549 19.7786 21.9339L20.9214 20.7377C20.9413 20.7167 20.9572 20.6919 20.968 20.6645C20.9788 20.6371 20.9844 20.6078 20.9844 20.5782C20.9844 20.5485 20.9788 20.5192 20.968 20.4918C20.9572 20.4645 20.9413 20.4396 20.9214 20.4187ZM12.0307 12.6059C10.9193 13.7692 9.44628 14.4099 7.87887 14.4099C6.31146 14.4099 4.83842 13.7692 3.72708 12.6059C2.61836 11.44 2.00765 9.89446 2.00765 8.24996C2.00765 6.60547 2.61836 5.05723 3.72708 3.89398C4.83842 2.73074 6.31146 2.08999 7.87887 2.08999C9.44628 2.08999 10.9219 2.72799 12.0307 3.89398C13.1394 5.05998 13.7501 6.60547 13.7501 8.24996C13.7501 9.89446 13.1394 11.4427 12.0307 12.6059Z" fill="#FF7A00"/>
</svg>
