<svg width="54" height="54" viewBox="0 0 54 54" fill="none" xmlns="http://www.w3.org/2000/svg">
<g clip-path="url(#clip0_164_338)">
<path fill-rule="evenodd" clip-rule="evenodd" d="M39.1838 32.3596C38.5133 32.0243 35.226 30.4088 34.614 30.1838C34.002 29.9611 33.5565 29.8508 33.1087 30.5213C32.6632 31.1873 31.383 32.6948 30.9937 33.1403C30.6022 33.5881 30.213 33.6421 29.5447 33.3091C28.8765 32.9716 26.721 32.2673 24.1672 29.9903C22.1805 28.2173 20.8372 26.0281 20.448 25.3576C20.0588 24.6893 20.4053 24.3271 20.7405 23.9941C21.042 23.6948 21.4087 23.2133 21.744 22.8241C22.0792 22.4326 22.1895 22.1536 22.4123 21.7058C22.6373 21.2603 22.5247 20.8711 22.356 20.5358C22.1895 20.2006 20.853 16.9088 20.295 15.5701C19.7528 14.2673 19.2015 14.4451 18.792 14.4226C18.4005 14.4046 17.955 14.4001 17.5095 14.4001C17.064 14.4001 16.3395 14.5666 15.7275 15.2371C15.1132 15.9053 13.3875 17.5231 13.3875 20.8148C13.3875 24.1043 15.7815 27.2836 16.1168 27.7313C16.452 28.1768 20.8305 34.9313 27.5378 37.8271C29.1353 38.5156 30.3795 38.9273 31.3492 39.2333C32.9512 39.7441 34.4093 39.6721 35.5612 39.4988C36.8438 39.3076 39.5168 37.8811 40.0748 36.3196C40.6305 34.7581 40.6305 33.4193 40.464 33.1403C40.2975 32.8613 39.852 32.6948 39.1815 32.3596H39.1838ZM26.9842 49.0163H26.9753C22.9915 49.0171 19.0808 47.9462 15.6532 45.9158L14.8433 45.4343L6.42375 47.6438L8.6715 39.4358L8.14275 38.5943C5.91556 35.0491 4.73691 30.9461 4.743 26.7593C4.7475 14.4968 14.724 4.52034 26.9932 4.52034C32.9333 4.52034 38.5177 6.83784 42.7163 11.0408C44.7871 13.1031 46.4285 15.5556 47.5454 18.2564C48.6623 20.9571 49.2326 23.8525 49.2233 26.7751C49.2188 39.0376 39.2422 49.0163 26.9842 49.0163ZM45.9113 7.84809C43.4322 5.35267 40.4825 3.37405 37.2332 2.02689C33.9839 0.679736 30.4995 -0.00917156 26.982 9.21995e-05C12.2355 9.21995e-05 0.2295 12.0038 0.225 26.7571C0.22275 31.4731 1.4535 36.0766 3.79575 40.1333L0 54.0001L14.184 50.2786C18.1077 52.4164 22.5047 53.5365 26.973 53.5366H26.9842C41.7308 53.5366 53.7368 41.5328 53.7412 26.7773C53.7521 23.2612 53.0657 19.7778 51.7217 16.5287C50.3777 13.2795 48.4028 10.3291 45.9113 7.84809Z" fill="white"/>
</g>
<defs>
<clipPath id="clip0_164_338">
<rect width="54" height="54" fill="white"/>
</clipPath>
</defs>
</svg>
